HIERARCHY
ROOT Hips
{
	OFFSET 0.00000 0.00000 0.00000
	CHANNELS 6 Xposition Yposition Zposition Yrotation Zrotation Xrotation 
	JOINT Lumbar
	{
		OFFSET 0 0 0
		CHANNELS 3 Zrotation Xrotation Yrotation
		JOINT Neck
		{
			OFFSET 0.00 0.2701 0.00
			CHANNELS 3 Zrotation Xrotation Yrotation
			End Site
			{
				OFFSET 0.00 0.1379 0.00
			}
		}
		JOINT RightShoulder
		{
			OFFSET 0.0119 0.2289 0.1181
			CHANNELS 3 Zrotation Xrotation Yrotation
			JOINT RightElbow
			{
				OFFSET 0.00 -0.1475 0.00
				CHANNELS 2 Zrotation Yrotation
				JOINT RightWrist
				{
					OFFSET 0.00 -0.1605 0.00
					CHANNELS 2 Zrotation Xrotation
					End Site
					{
						OFFSET 0.0040 -0.1068 0.0006
					}
				}
			}
		}
		JOINT LeftShoulder
		{
			OFFSET 0.0119 0.2289 -0.1181
			CHANNELS 3 Zrotation Xrotation Yrotation
			JOINT LeftElbow
			{
				OFFSET 0.00 -0.1475 0.00
				CHANNELS 2 Zrotation Yrotation
				JOINT LeftWrist
				{
					OFFSET 0.00 -0.1605 0.00
					CHANNELS 2 Zrotation Xrotation
					End Site
					{
						OFFSET 0.0040 -0.1068 -0.0006
					}
				}
			}
		}
	}
	JOINT RightHip
	{
		OFFSET 0.0316 -0.0424 0.0458
		CHANNELS 3 Zrotation Xrotation Yrotation
		JOINT RightKnee
		{
			OFFSET 0.00 -0.2438 0.00
			CHANNELS 1 Zrotation
			JOINT RightAnkle
			{
				OFFSET 0.00 -0.2449 0.00
				CHANNELS 3 Zrotation Xrotation Yrotation
				End Site
				{
					OFFSET 0.1237 -0.0542 0.0051
				}
			}
		}
	}
	JOINT LeftHip
	{
		OFFSET 0.0316 -0.0424 -0.0458
		CHANNELS 3 Zrotation Xrotation Yrotation
		JOINT LeftKnee
		{
			OFFSET 0.00 -0.2438 0.00
			CHANNELS 1 Zrotation
			JOINT LeftAnkle
			{
				OFFSET 0.00 -0.2449 0.00
				CHANNELS 3 Zrotation Xrotation Yrotation
				End Site
				{
					OFFSET 0.1237 -0.0542 -0.0051
				}
			}
		}
	}
}
MOTION
Frames: 30
Frame Time: 0.02
-0.08715 -0.00681 0.10661 173.37496 -43.36155 4.15639 47.57079 -2.26843 5.11444 -3.76564 -3.27185 -0.83079 169.88167 -110.54769 -90.0114 137.50549 93.29518 -78.4351 -5.74512 27.82001 65.12458 -60.30922 121.6313 -99.87961 26.95935 1.35817 59.74852 -12.16653 -11.10825 -37.61758 -8.63208 -4.68269 -3.23006 51.62536 1.56072 11.34767 -27.67018 -7.07678 3.92304 2.73729
-0.08633 -0.00599 0.10219 172.79862 -43.44686 3.51447 47.15952 -1.98064 5.64455 -2.47998 -3.07325 -0.83079 169.88212 -113.87133 -90.01178 137.70894 94.10533 -78.42396 -5.69765 31.53766 61.87905 -59.39843 119.92321 -100.931 27.76384 1.1884 59.03303 -11.05315 -11.03122 -36.27769 -8.46844 -4.59137 -3.17015 51.91259 2.34665 10.29525 -27.83503 -7.26811 3.98397 2.78308
-0.08544 -0.00517 0.09762 172.21374 -43.53971 2.86571 46.70224 -1.68509 6.20174 -0.97224 -2.84807 -0.83079 169.88195 -118.13918 -90.01162 137.59363 94.93798 -78.1336 -5.57341 34.55124 57.65812 -58.14355 117.45739 -100.27275 27.90532 1.32831 58.34717 -9.84594 -10.7907 -34.88512 -8.3445 -4.51413 -3.11981 52.22294 3.15628 9.15192 -28.0007 -7.47711 4.03355 2.8237
-0.08458 -0.00436 0.09313 171.64233 -43.62396 2.23389 46.27131 -1.39893 6.73387 0.40956 -2.64001 -0.83079 169.88198 -121.99011 -90.01169 137.62451 95.70256 -77.99381 -5.45957 37.87101 53.89102 -57.08167 115.25181 -100.43763 28.28225 1.31758 57.65324 -8.68771 -10.58574 -33.53367 -8.20867 -4.43589 -3.06856 52.51196 3.94842 8.08311 -28.15945 -7.67484 4.08682 2.86545
-0.0837 -0.0035 0.08856 171.02948 -43.72925 1.54189 45.81469 -1.08771 7.32123 1.90144 -2.40985 -0.83079 169.88197 -125.81799 -90.01162 137.63275 96.75583 -77.77007 -5.4344 41.27128 50.05449 -55.85688 113.40168 -100.53887 28.91015 1.34023 56.93431 -7.49485 -10.5305 -32.10306 -8.04973 -4.3355 -3.00345 52.84654 4.77163 6.87146 -28.34539 -7.88675 4.14656 2.91252
-0.08286 -0.00276 0.08413 170.50106 -43.79299 0.97437 45.40193 -0.82701 7.79971 3.21517 -2.2199 -0.83079 169.88193 -129.89153 -90.0116 137.61812 97.19084 -77.64766 -5.23047 44.33262 46.14385 -54.89512 110.62116 -100.31297 28.86893 1.37126 56.27551 -6.35671 -10.13823 -30.82727 -7.94668 -4.28369 -2.96882 53.09271 5.5338 5.93346 -28.47636 -8.07337 4.19031 2.94744
-0.08217 -0.00232 0.08014 170.21082 -43.73783 0.75153 45.11869 -0.70688 7.96745 3.98062 -2.14536 -0.83079 169.88217 -134.58362 -90.012 137.62706 95.9856 -77.88522 -4.31568 46.57234 42.23129 -54.7164 105.58473 -99.6435 27.13472 1.33557 55.77364 -5.36984 -8.75107 -29.99375 -7.99541 -4.37072 -3.02106 53.0777 6.1332 5.81599 -28.44041 -8.18272 4.18902 2.9473
-0.08152 -0.002 0.07631 170.00547 -43.641 0.6545 44.88213 -0.63792 8.02498 4.5584 -2.1127 -0.83079 169.88152 -139.44114 -90.01085 137.62352 94.1446 -78.2291 -3.26146 48.50102 38.29149 -54.8201 99.6202 -98.67973 24.75633 1.30108 55.33198 -4.44627 -7.04974 -29.31893 -8.09742 -4.50469 -3.10271 52.97523 6.66824 5.97117 -28.35252 -8.26641 4.17253 2.93552
-0.08085 -0.00164 0.07241 169.75949 -43.56501 0.5007 44.62634 -0.54627 8.13511 5.2233 -2.06234 -0.83079 169.88243 -144.12922 -90.0125 137.62435 92.5337 -78.51568 -2.43167 50.60764 34.3857 -54.8135 93.99283 -97.8029 22.68008 1.27655 54.8642 -3.5096 -5.5621 -28.57059 -8.16999 -4.61179 -3.16754 52.91974 7.22452 5.973 -28.29706 -8.36382 4.16543 2.93094
-0.0802 -0.00123 0.06848 169.52184 -43.48171 0.34529 44.36027 -0.45246 8.236 5.89007 -2.00538 -0.83079 169.88223 -149.31315 -90.01214 137.625 91.147 -78.83475 -0.94119 52.54044 30.3379 -54.71911 88.67821 -97.05875 20.53575 1.21915 54.39189 -2.50377 -3.77217 -27.82427 -8.26588 -4.74258 -3.24717 52.83321 7.81427 6.0911 -28.2012 -8.4534 4.14784 2.91838
-0.0795 -0.00095 0.06467 169.28712 -43.40307 0.22275 44.12761 -0.37477 8.32911 6.50325 -1.97249 -0.83079 169.87935 -153.40999 -90.00698 137.62001 89.1741 -79.10993 -0.7673 54.76459 26.61261 -54.87848 82.52409 -95.9997 18.39503 1.22549 53.9433 -1.65781 -2.5358 -27.11454 -8.32552 -4.83523 -3.30299 52.79192 8.32021 6.03896 -28.18113 -8.55266 4.14817 2.91941
-0.07863 -0.00096 0.06112 169.03999 -43.35259 0.16433 43.97429 -0.3346 8.43153 7.03117 -1.99556 -0.83079 169.88796 -155.16673 -90.02243 137.63314 85.45417 -79.26006 -4.49571 57.92138 23.61815 -55.67629 74.09295 -94.06337 16.37411 1.41481 53.54245 -1.24311 -2.93795 -26.44716 -8.26999 -4.80877 -3.28452 52.88274 8.59657 5.39909 -28.34858 -8.68763 4.20584 2.96382
-0.07769 -0.00111 0.05769 168.79292 -43.30745 0.13396 43.85394 -0.30795 8.529 7.50682 -2.04147 -0.83079 169.8749 -155.69715 -89.99895 137.61366 81.2149 -79.34466 -9.5087 61.37522 20.98679 -56.71939 64.88957 -91.84299 14.39146 1.66525 53.16394 -0.98686 -3.9032 -25.81522 -8.1763 -4.74262 -3.24125 53.0248 8.79286 4.58824 -28.6002 -8.8328 4.28149 3.02186
-0.07679 -0.00121 0.05423 168.54562 -43.25628 0.088 43.71915 -0.27148 8.62614 7.99497 -2.07733 -0.83079 169.87921 -156.31187 -90.00679 137.62023 77.40457 -79.465 -13.78414 64.66321 18.30138 -57.64854 56.16299 -89.81366 12.42595 1.88156 52.7769 -0.65475 -4.58917 -25.18024 -8.10122 -4.69616 -3.2102 53.15242 9.03536 3.88983 -28.83633 -8.97124 4.34607 3.07157
-0.07586 -0.00125 0.05068 168.30193 -43.21814 0.05823 43.58183 -0.25213 8.73057 8.52651 -2.11368 -0.83079 169.91545 -158.89162 -90.0716 137.67431 72.77452 -79.62489 -18.71269 68.07279 15.13961 -58.60117 46.86393 -87.51299 10.29144 2.12535 52.38462 -0.33999 -5.36075 -24.49516 -8.02271 -4.64459 -3.17629 53.23904 9.2359 3.05513 -28.97595 -9.11695 4.42178 3.12946
-0.07499 -0.00145 0.04733 168.04988 -43.1556 -1e-05 43.45931 -0.19989 8.81978 8.95483 -2.15334 -0.83079 169.80013 -157.13305 -89.86482 137.50205 69.71553 -79.60878 -22.5767 71.3005 13.06463 -59.55526 38.59645 -85.71209 8.52685 2.32582 52.00843 -0.02724 -6.09436 -23.92135 -7.94151 -4.59336 -3.14192 53.42512 9.5035 2.45903 -29.3355 -9.25111 4.47949 3.17422
-0.07422 -0.00207 0.04446 167.77176 -43.01624 -0.14675 43.34984 -0.05109 8.87139 9.13456 -2.20063 -0.83079 169.98386 -143.29094 -90.19484 137.77724 71.31407 -79.80413 -23.28533 73.98473 13.83773 -60.48665 33.28609 -85.38987 7.77696 2.39386 51.66465 0.33052 -6.56555 -23.64048 -7.86268 -4.55499 -3.11339 53.86699 9.99463 2.5719 -30.29653 -9.34419 4.47701 3.17511
-0.07353 -0.00284 0.04178 167.48512 -42.85371 -0.32346 43.25763 0.13125 8.90787 9.20805 -2.24914 -0.83079 169.90278 -125.2099 -90.04787 137.65422 74.48294 -79.7146 -22.86308 76.47198 15.7045 -61.40189 29.06172 -85.58208 7.4016 2.41435 51.33687 0.69017 -6.98412 -23.4704 -7.78212 -4.51784 -3.08499 54.40858 10.55286 2.92758 -31.47308 -9.4269 4.457 3.16321
-0.07284 -0.00353 0.03903 167.20415 -42.70751 -0.48475 43.17016 0.29665 8.94964 9.31645 -2.29466 -0.83079 169.45048 -109.32045 -89.23919 136.9811 76.80489 -79.28561 -22.89157 79.02981 17.1125 -62.30326 24.3958 -85.51448 6.85546 2.45694 51.00618 1.04107 -7.44176 -23.25284 -7.70179 -4.47826 -3.05559 54.90934 11.06838 3.16569 -32.54202 -9.51855 4.44905 3.16001
-0.07199 -0.00426 0.03621 166.91651 -42.53761 -0.65145 43.03051 0.46795 8.99763 9.48208 -2.35276 -0.83079 170.99072 -92.22654 -92.00051 139.28195 79.65445 -80.76133 -23.22146 81.67562 18.37058 -63.30926 19.47699 -85.52438 6.30963 2.50533 50.65924 1.41828 -7.85604 -23.02551 -7.62251 -4.44458 -3.02896 55.39372 11.63256 3.42976 -33.65632 -9.59171 4.42438 3.145
-0.07149 -0.00495 0.03357 166.63967 -42.41075 -0.81582 43.00351 0.63608 9.02945 9.50056 -2.38277 -0.83079 168.42104 -76.70363 -87.38567 135.43397 81.80556 -78.29431 -22.651 84.09026 20.19722 -64.08228 15.36033 -85.52664 5.85547 2.52234 50.34795 1.74499 -8.33935 -22.8431 -7.54113 -4.40021 -2.99734 55.9342 12.11247 3.69802 -34.72418 -9.70204 4.43021 3.15146
-0.07191 -0.00554 0.03132 166.40416 -42.41496 -0.95368 43.28053 0.77856 9.01783 9.16879 -2.35146 -0.83079 153.6784 -66.1047 -61.02956 113.49615 81.46464 -64.21977 -19.75461 85.89289 23.3121 -64.24192 13.1375 -85.12911 5.52668 2.53137 50.14608 1.91662 -9.03609 -22.76859 -7.45429 -4.31928 -2.94821 56.61324 12.34249 3.93336 -35.62772 -9.90616 4.52369 3.21945
-0.0727 -0.0061 0.02924 166.17839 -42.46213 -1.09017 43.67063 0.91806 8.99083 8.68762 -2.28916 -0.83079 134.97182 -57.32084 -27.54031 85.60525 80.39926 -46.33196 -16.00605 87.47404 26.96056 -64.13352 11.69927 -84.74347 5.2807 2.50158 49.97693 2.04044 -9.79899 -22.73353 -7.36566 -4.22891 -2.89483 57.343 12.48575 4.16318 -36.47312 -10.14971 4.64839 3.30952
-0.07335 -0.00666 0.02711 165.9415 -42.4852 -1.23647 44.01068 1.06506 8.97271 8.2549 -2.22938 -0.83079 118.66684 -48.01144 1.69993 61.23805 79.79019 -30.71213 -12.71805 89.16727 30.37428 -64.16506 9.94169 -84.53403 5.02433 2.44028 49.78256 2.19758 -10.52288 -22.67267 -7.27797 -4.14756 -2.84599 58.04465 12.66987 4.38579 -37.33432 -10.38316 4.75939 3.39013
-0.07386 -0.00727 0.02489 165.7311 -42.52641 -1.34717 44.34586 1.18853 8.94664 7.899 -2.21623 -0.83079 99.83108 -37.30054 35.19003 33.42076 78.71346 -12.83592 -9.08366 90.79846 33.80054 -64.23462 8.06261 -83.62216 4.67887 2.56864 49.63128 2.308 -11.285 -22.64772 -7.18932 -4.04656 -2.78628 58.77335 12.85095 4.65528 -38.24967 -10.58493 4.86824 3.46822
-0.07475 -0.00778 0.02288 165.46979 -42.5408 -1.5286 44.71758 1.35829 8.933 7.35092 -2.10137 -0.83079 85.31325 -29.98148 61.54048 11.35779 78.4003 1.2579 -5.98088 92.51772 37.3045 -64.01734 6.61105 -84.11117 4.51762 2.31371 49.39928 2.50153 -11.98138 -22.55745 -7.10268 -3.98384 -2.748 59.45375 13.016 4.82582 -39.03343 -10.86006 4.98858 3.55651
-0.07661 -0.00801 0.02137 165.04989 -42.46704 -1.92903 45.16425 1.66992 8.96341 6.29289 -1.68898 -0.83079 83.82874 -31.72736 66.17016 6.84811 80.51495 3.83446 -4.57802 94.4589 40.95942 -64.35408 6.12713 -88.97378 4.98745 0.83183 48.9236 2.96106 -12.50041 -22.26301 -7.01863 -4.03269 -2.77176 60.01082 13.1655 4.69586 -39.48559 -11.34617 5.13859 3.6717
-0.07883 -0.00814 0.02007 164.58136 -42.36567 -2.3963 45.64329 2.02561 9.00591 5.05034 -1.17972 -0.83079 86.804 -36.81828 63.38473 8.29981 83.38423 2.49533 -3.74205 96.51152 44.65524 -64.20571 6.04547 -95.15494 5.61565 -1.00356 48.36795 3.50134 -12.94752 -21.9035 -6.93729 -4.11974 -2.81687 60.51281 13.30015 4.47018 -39.80303 -11.90137 5.29814 3.79568
-0.08087 -0.00831 0.01869 164.14543 -42.27934 -2.81733 46.10638 2.35218 9.03894 3.90287 -0.73081 -0.83079 87.64393 -40.30633 64.20053 6.88655 85.81259 3.04191 -2.63507 98.56342 48.28392 -63.39732 5.78727 -100.38822 6.07028 -2.5568 47.85705 3.98831 -13.41424 -21.58258 -6.85694 -4.18698 -2.85099 61.02486 13.43632 4.30652 -40.16949 -12.4132 5.44974 3.913
-0.08297 -0.0085 0.01725 163.66563 -42.18367 -3.30481 46.57899 2.71695 9.08787 2.70173 -0.21227 -0.83079 88.79418 -44.20659 64.41153 5.91676 88.64849 3.28241 -1.54879 100.39622 52.14036 -66.15972 5.52842 -107.06715 6.93897 -4.61371 47.31135 4.54342 -13.93791 -21.22528 -6.76719 -4.26421 -2.89041 61.60212 13.5915 4.06659 -40.58531 -12.97714 5.61766 4.04238
